<?xml version="1.0" encoding="us-ascii" standalone="no"?><svg xmlns="http://www.w3.org/2000/svg" xmlns:xlink="http://www.w3.org/1999/xlink" contentStyleType="text/css" height="397px" preserveAspectRatio="none" style="width:512px;height:397px;background:#FFFFFF;" version="1.1" viewBox="0 0 512 397" width="512px" zoomAndPan="magnify"><defs/><g><line style="stroke:#8D6748;stroke-width:0.5;stroke-dasharray:5.0,5.0;" x1="27" x2="27" y1="82.6094" y2="315.0703"/><line style="stroke:#8D6748;stroke-width:0.5;stroke-dasharray:5.0,5.0;" x1="238" x2="238" y1="82.6094" y2="315.0703"/><line style="stroke:#8D6748;stroke-width:0.5;stroke-dasharray:5.0,5.0;" x1="438" x2="438" y1="82.6094" y2="315.0703"/><text fill="#000000" font-family="sans-serif" font-size="14" lengthAdjust="spacing" textLength="39" x="5" y="79.5332">Admin</text><ellipse cx="27.5" cy="13.5" fill="#E2E2F0" rx="8" ry="8" style="stroke:#8D6748;stroke-width:0.5;"/><path d="M27.5,21.5 L27.5,48.5 M14.5,29.5 L40.5,29.5 M27.5,48.5 L14.5,63.5 M27.5,48.5 L40.5,63.5 " fill="none" style="stroke:#8D6748;stroke-width:0.5;"/><text fill="#000000" font-family="sans-serif" font-size="14" lengthAdjust="spacing" textLength="39" x="5" y="328.6035">Admin</text><ellipse cx="27.5" cy="340.1797" fill="#E2E2F0" rx="8" ry="8" style="stroke:#8D6748;stroke-width:0.5;"/><path d="M27.5,348.1797 L27.5,375.1797 M14.5,356.1797 L40.5,356.1797 M27.5,375.1797 L14.5,390.1797 M27.5,375.1797 L40.5,390.1797 " fill="none" style="stroke:#8D6748;stroke-width:0.5;"/><rect fill="#E7D3C6" height="31.6094" rx="2.5" ry="2.5" style="stroke:#8D6748;stroke-width:0.5;" width="187" x="145" y="50"/><text fill="#000000" font-family="sans-serif" font-size="14" lengthAdjust="spacing" textLength="173" x="152" y="71.5332">Position Management Page</text><rect fill="#E7D3C6" height="31.6094" rx="2.5" ry="2.5" style="stroke:#8D6748;stroke-width:0.5;" width="187" x="145" y="314.0703"/><text fill="#000000" font-family="sans-serif" font-size="14" lengthAdjust="spacing" textLength="173" x="152" y="335.6035">Position Management Page</text><rect fill="#E7D3C6" height="31.6094" rx="2.5" ry="2.5" style="stroke:#8D6748;stroke-width:0.5;" width="135" x="371" y="50"/><text fill="#000000" font-family="sans-serif" font-size="14" lengthAdjust="spacing" textLength="121" x="378" y="71.5332">Firebase Database</text><rect fill="#E7D3C6" height="31.6094" rx="2.5" ry="2.5" style="stroke:#8D6748;stroke-width:0.5;" width="135" x="371" y="314.0703"/><text fill="#000000" font-family="sans-serif" font-size="14" lengthAdjust="spacing" textLength="121" x="378" y="335.6035">Firebase Database</text><polygon fill="#8D6748" points="226.5,110.9609,236.5,114.9609,226.5,118.9609,230.5,114.9609" style="stroke:#8D6748;stroke-width:1.0;"/><line style="stroke:#8D6748;stroke-width:1.0;" x1="27.5" x2="232.5" y1="114.9609" y2="114.9609"/><text fill="#000000" font-family="sans-serif" font-size="13" lengthAdjust="spacing" textLength="139" x="34.5" y="110.1045">Xem danh s&#225;ch ch&#7913;c v&#7909;</text><polygon fill="#8D6748" points="426.5,141.3125,436.5,145.3125,426.5,149.3125,430.5,145.3125" style="stroke:#8D6748;stroke-width:1.0;"/><line style="stroke:#8D6748;stroke-width:1.0;" x1="238.5" x2="432.5" y1="145.3125" y2="145.3125"/><text fill="#000000" font-family="sans-serif" font-size="13" lengthAdjust="spacing" textLength="135" x="245.5" y="140.4561">L&#7845;y danh s&#225;ch ch&#7913;c v&#7909;</text><polygon fill="#8D6748" points="249.5,171.6641,239.5,175.6641,249.5,179.6641,245.5,175.6641" style="stroke:#8D6748;stroke-width:1.0;"/><line style="stroke:#8D6748;stroke-width:1.0;" x1="243.5" x2="437.5" y1="175.6641" y2="175.6641"/><text fill="#000000" font-family="sans-serif" font-size="13" lengthAdjust="spacing" textLength="148" x="255.5" y="170.8076">Tr&#7843; v&#7873; danh s&#225;ch ch&#7913;c v&#7909;</text><polygon fill="#8D6748" points="226.5,202.0156,236.5,206.0156,226.5,210.0156,230.5,206.0156" style="stroke:#8D6748;stroke-width:1.0;"/><line style="stroke:#8D6748;stroke-width:1.0;" x1="27.5" x2="232.5" y1="206.0156" y2="206.0156"/><text fill="#000000" font-family="sans-serif" font-size="13" lengthAdjust="spacing" textLength="136" x="34.5" y="201.1592">Th&#234;m/S&#7917;a/X&#243;a ch&#7913;c v&#7909;</text><polygon fill="#8D6748" points="426.5,232.3672,436.5,236.3672,426.5,240.3672,430.5,236.3672" style="stroke:#8D6748;stroke-width:1.0;"/><line style="stroke:#8D6748;stroke-width:1.0;" x1="238.5" x2="432.5" y1="236.3672" y2="236.3672"/><text fill="#000000" font-family="sans-serif" font-size="13" lengthAdjust="spacing" textLength="176" x="245.5" y="231.5107">Th&#7921;c hi&#7879;n thao t&#225;c t&#432;&#417;ng &#7913;ng</text><polygon fill="#8D6748" points="249.5,262.7188,239.5,266.7188,249.5,270.7188,245.5,266.7188" style="stroke:#8D6748;stroke-width:1.0;"/><line style="stroke:#8D6748;stroke-width:1.0;" x1="243.5" x2="437.5" y1="266.7188" y2="266.7188"/><text fill="#000000" font-family="sans-serif" font-size="13" lengthAdjust="spacing" textLength="132" x="255.5" y="261.8623">Tr&#7843; v&#7873; k&#7871;t qu&#7843; thao t&#225;c</text><polygon fill="#8D6748" points="38.5,293.0703,28.5,297.0703,38.5,301.0703,34.5,297.0703" style="stroke:#8D6748;stroke-width:1.0;"/><line style="stroke:#8D6748;stroke-width:1.0;" x1="32.5" x2="237.5" y1="297.0703" y2="297.0703"/><text fill="#000000" font-family="sans-serif" font-size="13" lengthAdjust="spacing" textLength="187" x="44.5" y="292.2139">Hi&#7875;n th&#7883; k&#7871;t qu&#7843; qu&#7843;n l&#253; ch&#7913;c v&#7909;</text><!--SRC=[ZLEzImCn5D_lhtZeuA8u-4a7eRM8GvM27LoVkTWBxIKrb_C3SH071oS7Twk8A0YABlOGXqZ_Z_md9bThM-jLRmZX_RxU2_Sce2AHLq59_G2Xleo1wwiOI62IM_WuDwscc8HQe5yinzUlzkGcEUQWJ7BXP9PtuaKrnXieCOI8xiIK4mg77jWlBwNOMnPr8M5yqPzVc5tib8aIiY2aJ-KmM6BRjCGu_HD7KgjA4NF_YqCN_1aodtBAA1KZh85SPTdqKqOu5SH-beE3VYgtvoYb7UMwK2DxJF4CwtnTZR9sy2_A8m_TmqBU3ndt6hq1OQmi8gQOuB267AiqfBPOjfSnm0Ywe2iCobQOf5iOKIYYGdT9-TrgiU1vQHPCBGsOv62JXk0Z3o3IJHAalzCTWLsJt7ZzH2VikUMWP5et1rd27d4uho9DwzhHZhFK6OrM0dqVJc-Ov06dD_Kp_hlLYkKz4GYOIKxjEWGeGDbGKEt7TjDkXdNXrV_sN3EjTmKxiIjyMmt5foFaODL6dl1qzSu6bEd9eQxV-gVu1000]--></g></svg>