<?xml version="1.0" encoding="us-ascii" standalone="no"?><svg xmlns="http://www.w3.org/2000/svg" xmlns:xlink="http://www.w3.org/1999/xlink" contentStyleType="text/css" height="581px" preserveAspectRatio="none" style="width:528px;height:581px;background:#FFFFFF;" version="1.1" viewBox="0 0 528 581" width="528px" zoomAndPan="magnify"><defs/><g><rect fill="none" height="79.0547" style="stroke:#000000;stroke-width:1.5;" width="512.5" x="10" y="403.125"/><line style="stroke:#8D6748;stroke-width:0.5;stroke-dasharray:5.0,5.0;" x1="37" x2="37" y1="82.6094" y2="499.1797"/><line style="stroke:#8D6748;stroke-width:0.5;stroke-dasharray:5.0,5.0;" x1="242" x2="242" y1="82.6094" y2="499.1797"/><line style="stroke:#8D6748;stroke-width:0.5;stroke-dasharray:5.0,5.0;" x1="331" x2="331" y1="82.6094" y2="499.1797"/><line style="stroke:#8D6748;stroke-width:0.5;stroke-dasharray:5.0,5.0;" x1="476.5" x2="476.5" y1="82.6094" y2="499.1797"/><text fill="#000000" font-family="sans-serif" font-size="14" lengthAdjust="spacing" textLength="29" x="20" y="79.5332">User</text><ellipse cx="37.5" cy="13.5" fill="#E2E2F0" rx="8" ry="8" style="stroke:#8D6748;stroke-width:0.5;"/><path d="M37.5,21.5 L37.5,48.5 M24.5,29.5 L50.5,29.5 M37.5,48.5 L24.5,63.5 M37.5,48.5 L50.5,63.5 " fill="none" style="stroke:#8D6748;stroke-width:0.5;"/><text fill="#000000" font-family="sans-serif" font-size="14" lengthAdjust="spacing" textLength="29" x="20" y="512.7129">User</text><ellipse cx="37.5" cy="524.2891" fill="#E2E2F0" rx="8" ry="8" style="stroke:#8D6748;stroke-width:0.5;"/><path d="M37.5,532.2891 L37.5,559.2891 M24.5,540.2891 L50.5,540.2891 M37.5,559.2891 L24.5,574.2891 M37.5,559.2891 L50.5,574.2891 " fill="none" style="stroke:#8D6748;stroke-width:0.5;"/><rect fill="#E7D3C6" height="31.6094" rx="2.5" ry="2.5" style="stroke:#8D6748;stroke-width:0.5;" width="75" x="205" y="50"/><text fill="#000000" font-family="sans-serif" font-size="14" lengthAdjust="spacing" textLength="61" x="212" y="71.5332">Call Page</text><rect fill="#E7D3C6" height="31.6094" rx="2.5" ry="2.5" style="stroke:#8D6748;stroke-width:0.5;" width="75" x="205" y="498.1797"/><text fill="#000000" font-family="sans-serif" font-size="14" lengthAdjust="spacing" textLength="61" x="212" y="519.7129">Call Page</text><rect fill="#E7D3C6" height="31.6094" rx="2.5" ry="2.5" style="stroke:#8D6748;stroke-width:0.5;" width="83" x="290" y="50"/><text fill="#000000" font-family="sans-serif" font-size="14" lengthAdjust="spacing" textLength="69" x="297" y="71.5332">Other User</text><rect fill="#E7D3C6" height="31.6094" rx="2.5" ry="2.5" style="stroke:#8D6748;stroke-width:0.5;" width="83" x="290" y="498.1797"/><text fill="#000000" font-family="sans-serif" font-size="14" lengthAdjust="spacing" textLength="69" x="297" y="519.7129">Other User</text><rect fill="#E7D3C6" height="31.6094" rx="2.5" ry="2.5" style="stroke:#8D6748;stroke-width:0.5;" width="72" x="440.5" y="50"/><text fill="#000000" font-family="sans-serif" font-size="14" lengthAdjust="spacing" textLength="58" x="447.5" y="71.5332">WebRTC</text><rect fill="#E7D3C6" height="31.6094" rx="2.5" ry="2.5" style="stroke:#8D6748;stroke-width:0.5;" width="72" x="440.5" y="498.1797"/><text fill="#000000" font-family="sans-serif" font-size="14" lengthAdjust="spacing" textLength="58" x="447.5" y="519.7129">WebRTC</text><polygon fill="#8D6748" points="230.5,110.9609,240.5,114.9609,230.5,118.9609,234.5,114.9609" style="stroke:#8D6748;stroke-width:1.0;"/><line style="stroke:#8D6748;stroke-width:1.0;" x1="37.5" x2="236.5" y1="114.9609" y2="114.9609"/><text fill="#000000" font-family="sans-serif" font-size="13" lengthAdjust="spacing" textLength="90" x="44.5" y="110.1045">Ch&#7885;n ng&#432;&#7901;i g&#7885;i</text><polygon fill="#8D6748" points="230.5,141.3125,240.5,145.3125,230.5,149.3125,234.5,145.3125" style="stroke:#8D6748;stroke-width:1.0;"/><line style="stroke:#8D6748;stroke-width:1.0;" x1="37.5" x2="236.5" y1="145.3125" y2="145.3125"/><text fill="#000000" font-family="sans-serif" font-size="13" lengthAdjust="spacing" textLength="181" x="44.5" y="140.4561">Ch&#7885;n lo&#7841;i cu&#7897;c g&#7885;i (voice/video)</text><polygon fill="#8D6748" points="464.5,171.6641,474.5,175.6641,464.5,179.6641,468.5,175.6641" style="stroke:#8D6748;stroke-width:1.0;"/><line style="stroke:#8D6748;stroke-width:1.0;" x1="242.5" x2="470.5" y1="175.6641" y2="175.6641"/><text fill="#000000" font-family="sans-serif" font-size="13" lengthAdjust="spacing" textLength="148" x="249.5" y="170.8076">Thi&#7871;t l&#7853;p k&#7871;t n&#7889;i WebRTC</text><polygon fill="#8D6748" points="342.5,202.0156,332.5,206.0156,342.5,210.0156,338.5,206.0156" style="stroke:#8D6748;stroke-width:1.0;"/><line style="stroke:#8D6748;stroke-width:1.0;" x1="336.5" x2="475.5" y1="206.0156" y2="206.0156"/><text fill="#000000" font-family="sans-serif" font-size="13" lengthAdjust="spacing" textLength="121" x="348.5" y="201.1592">G&#7917;i t&#237;n hi&#7879;u cu&#7897;c g&#7885;i</text><polygon fill="#8D6748" points="464.5,232.3672,474.5,236.3672,464.5,240.3672,468.5,236.3672" style="stroke:#8D6748;stroke-width:1.0;"/><line style="stroke:#8D6748;stroke-width:1.0;" x1="331.5" x2="470.5" y1="236.3672" y2="236.3672"/><text fill="#000000" font-family="sans-serif" font-size="13" lengthAdjust="spacing" textLength="115" x="338.5" y="231.5107">Ch&#7845;p nh&#7853;n cu&#7897;c g&#7885;i</text><polygon fill="#8D6748" points="253.5,262.7188,243.5,266.7188,253.5,270.7188,249.5,266.7188" style="stroke:#8D6748;stroke-width:1.0;"/><line style="stroke:#8D6748;stroke-width:1.0;" x1="247.5" x2="475.5" y1="266.7188" y2="266.7188"/><text fill="#000000" font-family="sans-serif" font-size="13" lengthAdjust="spacing" textLength="132" x="259.5" y="261.8623">Thi&#7871;t l&#7853;p media stream</text><polygon fill="#8D6748" points="230.5,293.0703,240.5,297.0703,230.5,301.0703,234.5,297.0703" style="stroke:#8D6748;stroke-width:1.0;"/><line style="stroke:#8D6748;stroke-width:1.0;" x1="37.5" x2="236.5" y1="297.0703" y2="297.0703"/><text fill="#000000" font-family="sans-serif" font-size="13" lengthAdjust="spacing" textLength="111" x="44.5" y="292.2139">Th&#7921;c hi&#7879;n cu&#7897;c g&#7885;i</text><polygon fill="#8D6748" points="464.5,323.4219,474.5,327.4219,464.5,331.4219,468.5,327.4219" style="stroke:#8D6748;stroke-width:1.0;"/><line style="stroke:#8D6748;stroke-width:1.0;" x1="242.5" x2="470.5" y1="327.4219" y2="327.4219"/><text fill="#000000" font-family="sans-serif" font-size="13" lengthAdjust="spacing" textLength="150" x="249.5" y="322.5654">Truy&#7873;n &#226;m thanh/h&#236;nh &#7843;nh</text><polygon fill="#8D6748" points="230.5,353.7734,240.5,357.7734,230.5,361.7734,234.5,357.7734" style="stroke:#8D6748;stroke-width:1.0;"/><line style="stroke:#8D6748;stroke-width:1.0;" x1="37.5" x2="236.5" y1="357.7734" y2="357.7734"/><text fill="#000000" font-family="sans-serif" font-size="13" lengthAdjust="spacing" textLength="102" x="44.5" y="352.917">K&#7871;t th&#250;c cu&#7897;c g&#7885;i</text><polygon fill="#8D6748" points="464.5,384.125,474.5,388.125,464.5,392.125,468.5,388.125" style="stroke:#8D6748;stroke-width:1.0;"/><line style="stroke:#8D6748;stroke-width:1.0;" x1="242.5" x2="470.5" y1="388.125" y2="388.125"/><text fill="#000000" font-family="sans-serif" font-size="13" lengthAdjust="spacing" textLength="70" x="249.5" y="383.2686">Ng&#7855;t k&#7871;t n&#7889;i</text><path d="M10,403.125 L71,403.125 L71,411.4766 L61,421.4766 L10,421.4766 L10,403.125 " fill="#EEEEEE" style="stroke:#000000;stroke-width:1.5;"/><rect fill="none" height="79.0547" style="stroke:#000000;stroke-width:1.5;" width="512.5" x="10" y="403.125"/><text fill="#000000" font-family="sans-serif" font-size="13" font-weight="bold" lengthAdjust="spacing" textLength="16" x="25" y="417.6201">alt</text><text fill="#000000" font-family="sans-serif" font-size="11" font-weight="bold" lengthAdjust="spacing" textLength="162" x="86" y="416.5439">[K&#7871;t n&#7889;i m&#7841;ng kh&#244;ng &#7893;n &#273;&#7883;nh]</text><polygon fill="#8D6748" points="253.5,439.8281,243.5,443.8281,253.5,447.8281,249.5,443.8281" style="stroke:#8D6748;stroke-width:1.0;"/><line style="stroke:#8D6748;stroke-width:1.0;" x1="247.5" x2="475.5" y1="443.8281" y2="443.8281"/><text fill="#000000" font-family="sans-serif" font-size="13" lengthAdjust="spacing" textLength="120" x="259.5" y="438.9717">Th&#244;ng b&#225;o l&#7895;i k&#7871;t n&#7889;i</text><polygon fill="#8D6748" points="48.5,470.1797,38.5,474.1797,48.5,478.1797,44.5,474.1797" style="stroke:#8D6748;stroke-width:1.0;"/><line style="stroke:#8D6748;stroke-width:1.0;" x1="42.5" x2="241.5" y1="474.1797" y2="474.1797"/><text fill="#000000" font-family="sans-serif" font-size="13" lengthAdjust="spacing" textLength="122" x="54.5" y="469.3232">Hi&#7875;n th&#7883; th&#244;ng b&#225;o l&#7895;i</text><!--SRC=[XLI_RzGm5DxzLpoL0P107O2skW6flG4ageBG8MRNSHFh4ljmd0923AW3GyNGeK8CIBG8iN0291QIWS68_yF_2S_szUxIvguPOZll-xxt8y_lAWmqbIaORSTGs4yLI7jQ0SjSynN-7hdwHDs0OMP_8IQnl_4jNVD6Wd7DiQSXxe2KGo57LDC2Ilwiuf9nU4K0dqsjrVE-ofM6Anl9slhjZVYP6QMtb4wulcZS5djyMqX-gPsoOQfL9PC9XgydjzXQm3oYsWWcHbIQHJBpa2LAM-h58WLlEi_SkyCvZymTPPR66EmBf3TpiqpQcpkOhmdrXOKd9TTaDCiFLleqpp7ZbAy0BS6V_A6DUMWo7ha158uNbPxotSU3Va34BI4U13VlJcLxqCUkU2T1flz-kEQZW1IFOZ4kLzXc0bZbcWyiWk7QlXACh-wBXAlhv8pYwT5j3mQPSFKV0xchnoCOXZtsvf4u2omkdZBDfGVtN3CMOEnO0lARjrNBBPaYvprXcFMN4KXSaDR2ptpCice7Ll14K2YDvhJeAC40I_2JnLZEQNSchQkNuVxPqm8l7vNPQcQ_oGnS_Lbc7VeFGYWcipMxN7qdTVLtCrzBGdCpqOYrBV1NuRsVJ0G_1FoKQ0xHkU_Cxde4xAuzKLYJvhreEV2i-LZYRxgFzJYGORmS-kZR0eJBv3y0]--></g></svg>