<?xml version="1.0" encoding="us-ascii" standalone="no"?><svg xmlns="http://www.w3.org/2000/svg" xmlns:xlink="http://www.w3.org/1999/xlink" contentStyleType="text/css" height="306px" preserveAspectRatio="none" style="width:583px;height:306px;background:#FFFFFF;" version="1.1" viewBox="0 0 583 306" width="583px" zoomAndPan="magnify"><defs/><g><line style="stroke:#8D6748;stroke-width:0.5;stroke-dasharray:5.0,5.0;" x1="39" x2="39" y1="82.6094" y2="224.0156"/><line style="stroke:#8D6748;stroke-width:0.5;stroke-dasharray:5.0,5.0;" x1="257.5" x2="257.5" y1="82.6094" y2="224.0156"/><line style="stroke:#8D6748;stroke-width:0.5;stroke-dasharray:5.0,5.0;" x1="509.5" x2="509.5" y1="82.6094" y2="224.0156"/><text fill="#000000" font-family="sans-serif" font-size="14" lengthAdjust="spacing" textLength="62" x="5" y="79.5332">Employee</text><ellipse cx="39" cy="13.5" fill="#E2E2F0" rx="8" ry="8" style="stroke:#8D6748;stroke-width:0.5;"/><path d="M39,21.5 L39,48.5 M26,29.5 L52,29.5 M39,48.5 L26,63.5 M39,48.5 L52,63.5 " fill="none" style="stroke:#8D6748;stroke-width:0.5;"/><text fill="#000000" font-family="sans-serif" font-size="14" lengthAdjust="spacing" textLength="62" x="5" y="237.5488">Employee</text><ellipse cx="39" cy="249.125" fill="#E2E2F0" rx="8" ry="8" style="stroke:#8D6748;stroke-width:0.5;"/><path d="M39,257.125 L39,284.125 M26,265.125 L52,265.125 M39,284.125 L26,299.125 M39,284.125 L52,299.125 " fill="none" style="stroke:#8D6748;stroke-width:0.5;"/><rect fill="#E7D3C6" height="31.6094" rx="2.5" ry="2.5" style="stroke:#8D6748;stroke-width:0.5;" width="111" x="202.5" y="50"/><text fill="#000000" font-family="sans-serif" font-size="14" lengthAdjust="spacing" textLength="97" x="209.5" y="71.5332">Work Info Page</text><rect fill="#E7D3C6" height="31.6094" rx="2.5" ry="2.5" style="stroke:#8D6748;stroke-width:0.5;" width="111" x="202.5" y="223.0156"/><text fill="#000000" font-family="sans-serif" font-size="14" lengthAdjust="spacing" textLength="97" x="209.5" y="244.5488">Work Info Page</text><rect fill="#E7D3C6" height="31.6094" rx="2.5" ry="2.5" style="stroke:#8D6748;stroke-width:0.5;" width="135" x="442.5" y="50"/><text fill="#000000" font-family="sans-serif" font-size="14" lengthAdjust="spacing" textLength="121" x="449.5" y="71.5332">Firebase Database</text><rect fill="#E7D3C6" height="31.6094" rx="2.5" ry="2.5" style="stroke:#8D6748;stroke-width:0.5;" width="135" x="442.5" y="223.0156"/><text fill="#000000" font-family="sans-serif" font-size="14" lengthAdjust="spacing" textLength="121" x="449.5" y="244.5488">Firebase Database</text><polygon fill="#8D6748" points="246,110.9609,256,114.9609,246,118.9609,250,114.9609" style="stroke:#8D6748;stroke-width:1.0;"/><line style="stroke:#8D6748;stroke-width:1.0;" x1="39" x2="252" y1="114.9609" y2="114.9609"/><text fill="#000000" font-family="sans-serif" font-size="13" lengthAdjust="spacing" textLength="195" x="46" y="110.1045">Truy c&#7853;p trang th&#244;ng tin c&#244;ng vi&#7879;c</text><polygon fill="#8D6748" points="498,141.3125,508,145.3125,498,149.3125,502,145.3125" style="stroke:#8D6748;stroke-width:1.0;"/><line style="stroke:#8D6748;stroke-width:1.0;" x1="258" x2="504" y1="145.3125" y2="145.3125"/><text fill="#000000" font-family="sans-serif" font-size="13" lengthAdjust="spacing" textLength="228" x="265" y="140.4561">L&#7845;y th&#244;ng tin v&#7883; tr&#237;, ca l&#224;m, l&#7883;ch l&#224;m vi&#7879;c</text><polygon fill="#8D6748" points="269,171.6641,259,175.6641,269,179.6641,265,175.6641" style="stroke:#8D6748;stroke-width:1.0;"/><line style="stroke:#8D6748;stroke-width:1.0;" x1="263" x2="509" y1="175.6641" y2="175.6641"/><text fill="#000000" font-family="sans-serif" font-size="13" lengthAdjust="spacing" textLength="146" x="275" y="170.8076">Tr&#7843; v&#7873; th&#244;ng tin c&#244;ng vi&#7879;c</text><polygon fill="#8D6748" points="50,202.0156,40,206.0156,50,210.0156,46,206.0156" style="stroke:#8D6748;stroke-width:1.0;"/><line style="stroke:#8D6748;stroke-width:1.0;" x1="44" x2="257" y1="206.0156" y2="206.0156"/><text fill="#000000" font-family="sans-serif" font-size="13" lengthAdjust="spacing" textLength="156" x="56" y="201.1592">Hi&#7875;n th&#7883; th&#244;ng tin c&#244;ng vi&#7879;c</text><!--SRC=[ZL8_Jm8n5D_lKxpWu8AJ2eJ114IZ2J4E9iwrLw2vk_RizL1Y70Y30vE3EqgC4vkBT-FvHVfDR8idY1xQeMdVxq_VQtwRS2OGwu8KsGo2R183ovvYm3sLli3xlKeUUHcyNlQgEMxsfdUcqY43gT878zEyaHDvb8L8e00YSXaJXWdSEA1NGmX-jSzzBc2ZvbQgExLv6KikcbouHFm4sxH3sfIHFt64lQxWCNC_EQJgRkEAvPmY8Icc8MAoo6QPiiQfoQ-B70oqgkpi4aBcoXCkr_PeyGBhXY_NMHlu5-MjWyp7ma4G-dn0Y1CkPeJIEHSU7BCErwDtIGbG1APaBj-9XrIG2nGHQ269pC5oysghwJZv0x2rz-LHrq6A1u1LCWjrccocvh6Hb06sfpvLwHrsSecHBsphq5R9ys1PrLVfs2Qp31Y1dqs2ClYwXdlsalijF5ORKidKc0p_rKe-LHsED3XYDjpZ8ka7]--></g></svg>