<?xml version="1.0" encoding="us-ascii" standalone="no"?><svg xmlns="http://www.w3.org/2000/svg" xmlns:xlink="http://www.w3.org/1999/xlink" contentStyleType="text/css" height="366px" preserveAspectRatio="none" style="width:463px;height:366px;background:#FFFFFF;" version="1.1" viewBox="0 0 463 366" width="463px" zoomAndPan="magnify"><defs/><g><line style="stroke:#8D6748;stroke-width:0.5;stroke-dasharray:5.0,5.0;" x1="22" x2="22" y1="82.6094" y2="284.7188"/><line style="stroke:#8D6748;stroke-width:0.5;stroke-dasharray:5.0,5.0;" x1="227" x2="227" y1="82.6094" y2="284.7188"/><line style="stroke:#8D6748;stroke-width:0.5;stroke-dasharray:5.0,5.0;" x1="389" x2="389" y1="82.6094" y2="284.7188"/><text fill="#000000" font-family="sans-serif" font-size="14" lengthAdjust="spacing" textLength="29" x="5" y="79.5332">User</text><ellipse cx="22.5" cy="13.5" fill="#E2E2F0" rx="8" ry="8" style="stroke:#8D6748;stroke-width:0.5;"/><path d="M22.5,21.5 L22.5,48.5 M9.5,29.5 L35.5,29.5 M22.5,48.5 L9.5,63.5 M22.5,48.5 L35.5,63.5 " fill="none" style="stroke:#8D6748;stroke-width:0.5;"/><text fill="#000000" font-family="sans-serif" font-size="14" lengthAdjust="spacing" textLength="29" x="5" y="298.252">User</text><ellipse cx="22.5" cy="309.8281" fill="#E2E2F0" rx="8" ry="8" style="stroke:#8D6748;stroke-width:0.5;"/><path d="M22.5,317.8281 L22.5,344.8281 M9.5,325.8281 L35.5,325.8281 M22.5,344.8281 L9.5,359.8281 M22.5,344.8281 L35.5,359.8281 " fill="none" style="stroke:#8D6748;stroke-width:0.5;"/><rect fill="#E7D3C6" height="31.6094" rx="2.5" ry="2.5" style="stroke:#8D6748;stroke-width:0.5;" width="89" x="183" y="50"/><text fill="#000000" font-family="sans-serif" font-size="14" lengthAdjust="spacing" textLength="75" x="190" y="71.5332">Social Page</text><rect fill="#E7D3C6" height="31.6094" rx="2.5" ry="2.5" style="stroke:#8D6748;stroke-width:0.5;" width="89" x="183" y="283.7188"/><text fill="#000000" font-family="sans-serif" font-size="14" lengthAdjust="spacing" textLength="75" x="190" y="305.252">Social Page</text><rect fill="#E7D3C6" height="31.6094" rx="2.5" ry="2.5" style="stroke:#8D6748;stroke-width:0.5;" width="135" x="322" y="50"/><text fill="#000000" font-family="sans-serif" font-size="14" lengthAdjust="spacing" textLength="121" x="329" y="71.5332">Firebase Database</text><rect fill="#E7D3C6" height="31.6094" rx="2.5" ry="2.5" style="stroke:#8D6748;stroke-width:0.5;" width="135" x="322" y="283.7188"/><text fill="#000000" font-family="sans-serif" font-size="14" lengthAdjust="spacing" textLength="121" x="329" y="305.252">Firebase Database</text><polygon fill="#8D6748" points="215.5,110.9609,225.5,114.9609,215.5,118.9609,219.5,114.9609" style="stroke:#8D6748;stroke-width:1.0;"/><line style="stroke:#8D6748;stroke-width:1.0;" x1="22.5" x2="221.5" y1="114.9609" y2="114.9609"/><text fill="#000000" font-family="sans-serif" font-size="13" lengthAdjust="spacing" textLength="69" x="29.5" y="110.1045">Xem b&#224;i vi&#7871;t</text><polygon fill="#8D6748" points="215.5,141.3125,225.5,145.3125,215.5,149.3125,219.5,145.3125" style="stroke:#8D6748;stroke-width:1.0;"/><line style="stroke:#8D6748;stroke-width:1.0;" x1="22.5" x2="221.5" y1="145.3125" y2="145.3125"/><text fill="#000000" font-family="sans-serif" font-size="13" lengthAdjust="spacing" textLength="181" x="29.5" y="140.4561">Th&#237;ch/B&#236;nh lu&#7853;n/Chia s&#7867; b&#224;i vi&#7871;t</text><polygon fill="#8D6748" points="377.5,171.6641,387.5,175.6641,377.5,179.6641,381.5,175.6641" style="stroke:#8D6748;stroke-width:1.0;"/><line style="stroke:#8D6748;stroke-width:1.0;" x1="227.5" x2="383.5" y1="175.6641" y2="175.6641"/><text fill="#000000" font-family="sans-serif" font-size="13" lengthAdjust="spacing" textLength="85" x="234.5" y="170.8076">L&#432;u t&#432;&#417;ng t&#225;c</text><polygon fill="#8D6748" points="238.5,202.0156,228.5,206.0156,238.5,210.0156,234.5,206.0156" style="stroke:#8D6748;stroke-width:1.0;"/><line style="stroke:#8D6748;stroke-width:1.0;" x1="232.5" x2="388.5" y1="206.0156" y2="206.0156"/><text fill="#000000" font-family="sans-serif" font-size="13" lengthAdjust="spacing" textLength="138" x="244.5" y="201.1592">X&#225;c nh&#7853;n l&#432;u t&#432;&#417;ng t&#225;c</text><polygon fill="#8D6748" points="33.5,232.3672,23.5,236.3672,33.5,240.3672,29.5,236.3672" style="stroke:#8D6748;stroke-width:1.0;"/><line style="stroke:#8D6748;stroke-width:1.0;" x1="27.5" x2="226.5" y1="236.3672" y2="236.3672"/><text fill="#000000" font-family="sans-serif" font-size="13" lengthAdjust="spacing" textLength="164" x="39.5" y="231.5107">Hi&#7875;n th&#7883; tr&#7841;ng th&#225;i t&#432;&#417;ng t&#225;c</text><polygon fill="#8D6748" points="33.5,262.7188,23.5,266.7188,33.5,270.7188,29.5,266.7188" style="stroke:#8D6748;stroke-width:1.0;"/><line style="stroke:#8D6748;stroke-width:1.0;" x1="27.5" x2="388.5" y1="266.7188" y2="266.7188"/><text fill="#000000" font-family="sans-serif" font-size="13" lengthAdjust="spacing" textLength="187" x="39.5" y="261.8623">G&#7917;i th&#244;ng b&#225;o ph&#7843;n h&#7891;i (n&#7871;u c&#243;)</text><!--SRC=[XLEzIyD05D_pLppge8BIGMrB1w4Vg4CHmGgkrykrEPhUrSj51N4GHoSHzqO75mC5NMm6XvF-7_bFl4kKjFR3325tlw_tmdkhq1I8TK0A5K9F3NnWwia7xCJH2tpTnwE0Rq3NKU-QOwiF_MPnTCD0nj6ZaMdUhULrAUiZWNhWaJEVC4pWoWBzL8JW5pNkSW4h9RjGt2wbrrXoKUN29c8MRD0sQL16_iKHxdO4zvdzmo55UmiN4iuH4f9YsaTCBhAPf2nnglBBHGu6-gjixn12KkKXbqjhJF05rXLNBhCsy1pbjONCZuKJZmYhd_K7kMEEAN9rpnsI0-H1UZR7QTuU5QI5F09r997vIDY_j_MgPHblsDoTS2Z3AUb1ImqedDDuz2ddSfgE2h6JhwfNve3hnwEGvMiEHU35esXAdQcCHvPTXiPuw8CS3yU1cJmLO2j3PshIC337v80xevlECFMMuO3gKMR9HD_fTT2Jdyot2kYop5Ix7qSXDMIp9YqLSEZhw6S6sko1mXhJdUcbKc_htm00]--></g></svg>